# xmcd
#
# Track frame offsets: 
#        150
#        15285
#        31245
#        50845
#        63957
#        77405
#        94132
#        110740
#        125504
#        141517
#        156999
#
# Disc length: 2293 seconds
#
# Revision: 0
# Processed by: cddbd v1.5.2PL0 Copyright (c) Steve Scherf et al.
# Submitted via: ExactAudioCopyFreeDBPlugin 1.0
#
DISCID=9008f30b
DTITLE=Home Free - Timeless
DYEAR=2017
DGENRE=Country
TTITLE0=Life is a Highway
TTITLE1=It Looks Good
TTITLE2=Castle on the Hill
TTITLE3=When You Walk In
TTITLE4=We Just Disagree
TTITLE5=In the Blood
TTITLE6=Man of Constant Sorrow
TTITLE7=Good Ol' Boy Good Time
TTITLE8=I Can't Outrun You
TTITLE9=Hillbilly Bone
TTITLE10=Timeless
EXTD=
EXTT0=
EXTT1=
EXTT2=
EXTT3=
EXTT4=
EXTT5=
EXTT6=
EXTT7=
EXTT8=
EXTT9=
EXTT10=
PLAYORDER=
